<svg id="visual" viewBox="0 0 960 540" width="960" height="540" xmlns="http://www.w3.org/2000/svg" xmlns:xlink="http://www.w3.org/1999/xlink" version="1.1"><rect x="0" y="0" width="960" height="540" fill="#001220"></rect><defs><linearGradient id="grad1_0" x1="43.8%" y1="0%" x2="100%" y2="100%"><stop offset="14.444444444444446%" stop-color="#fbae3c" stop-opacity="1"></stop><stop offset="85.55555555555554%" stop-color="#fbae3c" stop-opacity="1"></stop></linearGradient></defs><defs><linearGradient id="grad1_1" x1="43.8%" y1="0%" x2="100%" y2="100%"><stop offset="14.444444444444446%" stop-color="#fbae3c" stop-opacity="1"></stop><stop offset="85.55555555555554%" stop-color="#f48350" stop-opacity="1"></stop></linearGradient></defs><defs><linearGradient id="grad1_2" x1="43.8%" y1="0%" x2="100%" y2="100%"><stop offset="14.444444444444446%" stop-color="#d96162" stop-opacity="1"></stop><stop offset="85.55555555555554%" stop-color="#f48350" stop-opacity="1"></stop></linearGradient></defs><defs><linearGradient id="grad1_3" x1="43.8%" y1="0%" x2="100%" y2="100%"><stop offset="14.444444444444446%" stop-color="#d96162" stop-opacity="1"></stop><stop offset="85.55555555555554%" stop-color="#af4b6d" stop-opacity="1"></stop></linearGradient></defs><defs><linearGradient id="grad1_4" x1="43.8%" y1="0%" x2="100%" y2="100%"><stop offset="14.444444444444446%" stop-color="#7c3e6b" stop-opacity="1"></stop><stop offset="85.55555555555554%" stop-color="#af4b6d" stop-opacity="1"></stop></linearGradient></defs><defs><linearGradient id="grad1_5" x1="43.8%" y1="0%" x2="100%" y2="100%"><stop offset="14.444444444444446%" stop-color="#7c3e6b" stop-opacity="1"></stop><stop offset="85.55555555555554%" stop-color="#49335c" stop-opacity="1"></stop></linearGradient></defs><defs><linearGradient id="grad1_6" x1="43.8%" y1="0%" x2="100%" y2="100%"><stop offset="14.444444444444446%" stop-color="#1d2540" stop-opacity="1"></stop><stop offset="85.55555555555554%" stop-color="#49335c" stop-opacity="1"></stop></linearGradient></defs><defs><linearGradient id="grad1_7" x1="43.8%" y1="0%" x2="100%" y2="100%"><stop offset="14.444444444444446%" stop-color="#1d2540" stop-opacity="1"></stop><stop offset="85.55555555555554%" stop-color="#001220" stop-opacity="1"></stop></linearGradient></defs><defs><linearGradient id="grad2_0" x1="0%" y1="0%" x2="56.3%" y2="100%"><stop offset="14.444444444444446%" stop-color="#fbae3c" stop-opacity="1"></stop><stop offset="85.55555555555554%" stop-color="#fbae3c" stop-opacity="1"></stop></linearGradient></defs><defs><linearGradient id="grad2_1" x1="0%" y1="0%" x2="56.3%" y2="100%"><stop offset="14.444444444444446%" stop-color="#f48350" stop-opacity="1"></stop><stop offset="85.55555555555554%" stop-color="#fbae3c" stop-opacity="1"></stop></linearGradient></defs><defs><linearGradient id="grad2_2" x1="0%" y1="0%" x2="56.3%" y2="100%"><stop offset="14.444444444444446%" stop-color="#f48350" stop-opacity="1"></stop><stop offset="85.55555555555554%" stop-color="#d96162" stop-opacity="1"></stop></linearGradient></defs><defs><linearGradient id="grad2_3" x1="0%" y1="0%" x2="56.3%" y2="100%"><stop offset="14.444444444444446%" stop-color="#af4b6d" stop-opacity="1"></stop><stop offset="85.55555555555554%" stop-color="#d96162" stop-opacity="1"></stop></linearGradient></defs><defs><linearGradient id="grad2_4" x1="0%" y1="0%" x2="56.3%" y2="100%"><stop offset="14.444444444444446%" stop-color="#af4b6d" stop-opacity="1"></stop><stop offset="85.55555555555554%" stop-color="#7c3e6b" stop-opacity="1"></stop></linearGradient></defs><defs><linearGradient id="grad2_5" x1="0%" y1="0%" x2="56.3%" y2="100%"><stop offset="14.444444444444446%" stop-color="#49335c" stop-opacity="1"></stop><stop offset="85.55555555555554%" stop-color="#7c3e6b" stop-opacity="1"></stop></linearGradient></defs><defs><linearGradient id="grad2_6" x1="0%" y1="0%" x2="56.3%" y2="100%"><stop offset="14.444444444444446%" stop-color="#49335c" stop-opacity="1"></stop><stop offset="85.55555555555554%" stop-color="#1d2540" stop-opacity="1"></stop></linearGradient></defs><defs><linearGradient id="grad2_7" x1="0%" y1="0%" x2="56.3%" y2="100%"><stop offset="14.444444444444446%" stop-color="#001220" stop-opacity="1"></stop><stop offset="85.55555555555554%" stop-color="#1d2540" stop-opacity="1"></stop></linearGradient></defs><g transform="translate(960, 0)"><path d="M0 486C-52.1 455.5 -104.2 424.9 -168.8 407.4C-233.3 390 -310.2 385.6 -343.7 343.7C-377.1 301.7 -366.9 222.3 -383.4 158.8C-399.9 95.3 -442.9 47.6 -486 0L0 0Z" fill="#0c1c30"></path><path d="M0 425.3C-45.6 398.5 -91.2 371.8 -147.7 356.5C-204.1 341.2 -271.5 337.4 -300.7 300.7C-329.9 264 -321.1 194.5 -335.5 139C-349.9 83.4 -387.6 41.7 -425.2 0L0 0Z" fill="#312c4f"></path><path d="M0 364.5C-39.1 341.6 -78.2 318.7 -126.6 305.6C-175 292.5 -232.7 289.2 -257.7 257.7C-282.8 226.3 -275.2 166.8 -287.6 119.1C-299.9 71.5 -332.2 35.7 -364.5 0L0 0Z" fill="#623965"></path><path d="M0 303.8C-32.6 284.7 -65.1 265.6 -105.5 254.6C-145.8 243.7 -193.9 241 -214.8 214.8C-235.7 188.6 -229.3 139 -239.6 99.3C-249.9 59.6 -276.8 29.8 -303.7 0L0 0Z" fill="#96446e"></path><path d="M0 243C-26.1 227.7 -52.1 212.5 -84.4 203.7C-116.6 195 -155.1 192.8 -171.8 171.8C-188.5 150.9 -183.5 111.2 -191.7 79.4C-199.9 47.6 -221.5 23.8 -243 0L0 0Z" fill="#c55469"></path><path d="M0 182.3C-19.5 170.8 -39.1 159.3 -63.3 152.8C-87.5 146.2 -116.3 144.6 -128.9 128.9C-141.4 113.2 -137.6 83.4 -143.8 59.6C-150 35.7 -166.1 17.9 -182.2 0L0 0Z" fill="#e9705a"></path><path d="M0 121.5C-13 113.9 -26.1 106.2 -42.2 101.9C-58.3 97.5 -77.6 96.4 -85.9 85.9C-94.3 75.4 -91.7 55.6 -95.9 39.7C-100 23.8 -110.7 11.9 -121.5 0L0 0Z" fill="#fa9845"></path><path d="M0 60.8C-6.5 56.9 -13 53.1 -21.1 50.9C-29.2 48.7 -38.8 48.2 -43 43C-47.1 37.7 -45.9 27.8 -47.9 19.9C-50 11.9 -55.4 6 -60.7 0L0 0Z" fill="#fbae3c"></path></g><g transform="translate(0, 540)"><path d="M0 -486C45.4 -432 90.8 -378 148.5 -358.5C206.1 -338.9 276 -353.8 330.9 -330.9C385.8 -308.1 425.7 -247.4 449 -186C472.3 -124.5 479.2 -62.3 486 0L0 0Z" fill="#0c1c30"></path><path d="M0 -425.2C39.7 -378 79.5 -330.8 129.9 -313.7C180.4 -296.5 241.5 -309.6 289.6 -289.6C337.6 -269.5 372.5 -216.5 392.9 -162.7C413.3 -109 419.3 -54.5 425.3 0L0 0Z" fill="#312c4f"></path><path d="M0 -364.5C34.1 -324 68.1 -283.5 111.4 -268.8C154.6 -254.2 207 -265.3 248.2 -248.2C289.4 -231 319.2 -185.6 336.8 -139.5C354.3 -93.4 359.4 -46.7 364.5 0L0 0Z" fill="#623965"></path><path d="M0 -303.7C28.4 -270 56.8 -236.3 92.8 -224C128.8 -211.8 172.5 -221.1 206.8 -206.8C241.1 -192.5 266 -154.6 280.6 -116.2C295.2 -77.8 299.5 -38.9 303.8 0L0 0Z" fill="#96446e"></path><path d="M0 -243C22.7 -216 45.4 -189 74.2 -179.2C103.1 -169.5 138 -176.9 165.5 -165.5C192.9 -154 212.8 -123.7 224.5 -93C236.2 -62.3 239.6 -31.1 243 0L0 0Z" fill="#c55469"></path><path d="M0 -182.2C17 -162 34.1 -141.8 55.7 -134.4C77.3 -127.1 103.5 -132.7 124.1 -124.1C144.7 -115.5 159.6 -92.8 168.4 -69.7C177.1 -46.7 179.7 -23.4 182.3 0L0 0Z" fill="#e9705a"></path><path d="M0 -121.5C11.4 -108 22.7 -94.5 37.1 -89.6C51.5 -84.7 69 -88.4 82.7 -82.7C96.5 -77 106.4 -61.9 112.3 -46.5C118.1 -31.1 119.8 -15.6 121.5 0L0 0Z" fill="#fa9845"></path><path d="M0 -60.7C5.7 -54 11.4 -47.3 18.6 -44.8C25.8 -42.4 34.5 -44.2 41.4 -41.4C48.2 -38.5 53.2 -30.9 56.1 -23.2C59 -15.6 59.9 -7.8 60.8 0L0 0Z" fill="#fbae3c"></path></g></svg>