<svg id="visual" viewBox="0 0 960 540" width="960" height="540" xmlns="http://www.w3.org/2000/svg" xmlns:xlink="http://www.w3.org/1999/xlink" version="1.1"><g stroke-width="1" stroke-linejoin="bevel"><path d="M512.3 254L608 335L553.3 199Z" fill="#00a0f1" stroke="#00a0f1"></path><path d="M608 335L664 237L553.3 199Z" fill="#0076c7" stroke="#0076c7"></path><path d="M512.3 254L553.3 369L608 335Z" fill="#0099ea" stroke="#0099ea"></path><path d="M664 237L660 174L553.3 199Z" fill="#00aeff" stroke="#00aeff"></path><path d="M740.7 365L718.7 233L664 237Z" fill="#0099ea" stroke="#0099ea"></path><path d="M664 237L718.7 233L660 174Z" fill="#0092e3" stroke="#0092e3"></path><path d="M434.7 367L549.3 425L553.3 369Z" fill="#007dce" stroke="#007dce"></path><path d="M553.3 369L549.3 425L608 335Z" fill="#00a7f8" stroke="#00a7f8"></path><path d="M608 335L740.7 365L664 237Z" fill="#007dce" stroke="#007dce"></path><path d="M718.7 233L736.7 173L660 174Z" fill="#00aeff" stroke="#00aeff"></path><path d="M605 81L558.3 89L553.3 199Z" fill="#007dce" stroke="#007dce"></path><path d="M417.7 143L393.7 244L512.3 254Z" fill="#0070c0" stroke="#0070c0"></path><path d="M605 81L553.3 199L660 174Z" fill="#00aeff" stroke="#00aeff"></path><path d="M393.7 244L434.7 367L512.3 254Z" fill="#008bdc" stroke="#008bdc"></path><path d="M512.3 254L434.7 367L553.3 369Z" fill="#00aeff" stroke="#00aeff"></path><path d="M678 445L740.7 365L608 335Z" fill="#0099ea" stroke="#0099ea"></path><path d="M718.7 233L870.3 208L736.7 173Z" fill="#00a7f8" stroke="#00a7f8"></path><path d="M720.7 97L605 81L660 174Z" fill="#00a7f8" stroke="#00a7f8"></path><path d="M417.7 143L512.3 254L553.3 199Z" fill="#008bdc" stroke="#008bdc"></path><path d="M549.3 425L678 445L608 335Z" fill="#007dce" stroke="#007dce"></path><path d="M439.7 113L417.7 143L553.3 199Z" fill="#00aeff" stroke="#00aeff"></path><path d="M558.3 89L439.7 113L553.3 199Z" fill="#0076c7" stroke="#0076c7"></path><path d="M736.7 173L720.7 97L660 174Z" fill="#00aeff" stroke="#00aeff"></path><path d="M434.7 367L423.7 436L549.3 425Z" fill="#007dce" stroke="#007dce"></path><path d="M632 540L753.7 486L678 445Z" fill="#00aeff" stroke="#00aeff"></path><path d="M298 375L423.7 436L434.7 367Z" fill="#007dce" stroke="#007dce"></path><path d="M336 165L339 261L393.7 244Z" fill="#00a0f1" stroke="#00a0f1"></path><path d="M393.7 244L339 261L434.7 367Z" fill="#0076c7" stroke="#0076c7"></path><path d="M872.3 418L825.3 330L740.7 365Z" fill="#0084d5" stroke="#0084d5"></path><path d="M740.7 365L825.3 330L718.7 233Z" fill="#0076c7" stroke="#0076c7"></path><path d="M736.7 173L823.3 128L720.7 97Z" fill="#00a0f1" stroke="#00a0f1"></path><path d="M327 51L336 165L417.7 143Z" fill="#0070c0" stroke="#0070c0"></path><path d="M417.7 143L336 165L393.7 244Z" fill="#008bdc" stroke="#008bdc"></path><path d="M558.3 89L513.3 0L439.7 113Z" fill="#008bdc" stroke="#008bdc"></path><path d="M439.7 113L327 51L417.7 143Z" fill="#0076c7" stroke="#0076c7"></path><path d="M605 81L513.3 0L558.3 89Z" fill="#0099ea" stroke="#0099ea"></path><path d="M679 0L513.3 0L605 81Z" fill="#0070c0" stroke="#0070c0"></path><path d="M870.3 208L823.3 128L736.7 173Z" fill="#0084d5" stroke="#0084d5"></path><path d="M720.7 97L679 0L605 81Z" fill="#0099ea" stroke="#0099ea"></path><path d="M632 540L678 445L549.3 425Z" fill="#00a0f1" stroke="#00a0f1"></path><path d="M678 445L753.7 486L740.7 365Z" fill="#0092e3" stroke="#0092e3"></path><path d="M444.7 540L540.3 540L549.3 425Z" fill="#00a7f8" stroke="#00a7f8"></path><path d="M540.3 540L632 540L549.3 425Z" fill="#0069b9" stroke="#0069b9"></path><path d="M747.7 0L679 0L720.7 97Z" fill="#0084d5" stroke="#0084d5"></path><path d="M878.3 259L870.3 208L718.7 233Z" fill="#00a7f8" stroke="#00a7f8"></path><path d="M960 348L878.3 259L825.3 330Z" fill="#0076c7" stroke="#0076c7"></path><path d="M825.3 330L878.3 259L718.7 233Z" fill="#0069b9" stroke="#0069b9"></path><path d="M238.3 438L298 375L173.3 389Z" fill="#0084d5" stroke="#0084d5"></path><path d="M339 261L298 375L434.7 367Z" fill="#008bdc" stroke="#008bdc"></path><path d="M423.7 436L444.7 540L549.3 425Z" fill="#007dce" stroke="#007dce"></path><path d="M352 540L444.7 540L423.7 436Z" fill="#008bdc" stroke="#008bdc"></path><path d="M823.3 128L747.7 0L720.7 97Z" fill="#008bdc" stroke="#008bdc"></path><path d="M753.7 486L872.3 418L740.7 365Z" fill="#0099ea" stroke="#0099ea"></path><path d="M632 540L764.7 540L753.7 486Z" fill="#0076c7" stroke="#0076c7"></path><path d="M753.7 486L886.3 540L872.3 418Z" fill="#00a0f1" stroke="#00a0f1"></path><path d="M513.3 0L387.7 0L439.7 113Z" fill="#007dce" stroke="#007dce"></path><path d="M238.3 438L289 422L298 375Z" fill="#0092e3" stroke="#0092e3"></path><path d="M298 375L289 422L423.7 436Z" fill="#0070c0" stroke="#0070c0"></path><path d="M387.7 0L327 51L439.7 113Z" fill="#0076c7" stroke="#0076c7"></path><path d="M180.3 269L298 375L339 261Z" fill="#00a0f1" stroke="#00a0f1"></path><path d="M289 422L352 540L423.7 436Z" fill="#0069b9" stroke="#0069b9"></path><path d="M387.7 0L333 0L327 51Z" fill="#0092e3" stroke="#0092e3"></path><path d="M960 348L960 259L878.3 259Z" fill="#00a0f1" stroke="#00a0f1"></path><path d="M878.3 259L960 259L870.3 208Z" fill="#0084d5" stroke="#0084d5"></path><path d="M960 127L858.3 0L823.3 128Z" fill="#0084d5" stroke="#0084d5"></path><path d="M823.3 128L858.3 0L747.7 0Z" fill="#00a7f8" stroke="#00a7f8"></path><path d="M960 127L823.3 128L870.3 208Z" fill="#0070c0" stroke="#0070c0"></path><path d="M872.3 418L960 348L825.3 330Z" fill="#00a0f1" stroke="#00a0f1"></path><path d="M960 425L960 348L872.3 418Z" fill="#007dce" stroke="#007dce"></path><path d="M206.3 176L339 261L336 165Z" fill="#0099ea" stroke="#0099ea"></path><path d="M289 422L238.3 438L352 540Z" fill="#0069b9" stroke="#0069b9"></path><path d="M206.3 176L336 165L214.3 66Z" fill="#00a7f8" stroke="#00a7f8"></path><path d="M960 259L960 163L870.3 208Z" fill="#0099ea" stroke="#0099ea"></path><path d="M214.3 66L336 165L327 51Z" fill="#0084d5" stroke="#0084d5"></path><path d="M960 163L960 127L870.3 208Z" fill="#0070c0" stroke="#0070c0"></path><path d="M206.3 176L180.3 269L339 261Z" fill="#0070c0" stroke="#0070c0"></path><path d="M886.3 540L960 425L872.3 418Z" fill="#0076c7" stroke="#0076c7"></path><path d="M764.7 540L886.3 540L753.7 486Z" fill="#0084d5" stroke="#0084d5"></path><path d="M217.3 0L214.3 66L327 51Z" fill="#00a0f1" stroke="#00a0f1"></path><path d="M109.7 261L127.7 336L180.3 269Z" fill="#0099ea" stroke="#0099ea"></path><path d="M180.3 269L173.3 389L298 375Z" fill="#0076c7" stroke="#0076c7"></path><path d="M238.3 438L177.3 540L352 540Z" fill="#00a0f1" stroke="#00a0f1"></path><path d="M333 0L217.3 0L327 51Z" fill="#008bdc" stroke="#008bdc"></path><path d="M109.7 261L180.3 269L206.3 176Z" fill="#0092e3" stroke="#0092e3"></path><path d="M960 127L960 0L858.3 0Z" fill="#0069b9" stroke="#0069b9"></path><path d="M109.7 261L206.3 176L93.7 179Z" fill="#008bdc" stroke="#008bdc"></path><path d="M180.3 269L127.7 336L173.3 389Z" fill="#0084d5" stroke="#0084d5"></path><path d="M886.3 540L960 540L960 425Z" fill="#00a0f1" stroke="#00a0f1"></path><path d="M93.7 179L206.3 176L128.7 58Z" fill="#007dce" stroke="#007dce"></path><path d="M114.7 440L238.3 438L173.3 389Z" fill="#0076c7" stroke="#0076c7"></path><path d="M114.7 440L177.3 540L238.3 438Z" fill="#0069b9" stroke="#0069b9"></path><path d="M128.7 58L206.3 176L214.3 66Z" fill="#0092e3" stroke="#0092e3"></path><path d="M138.7 0L128.7 58L214.3 66Z" fill="#0084d5" stroke="#0084d5"></path><path d="M0 378L114.7 440L127.7 336Z" fill="#0069b9" stroke="#0069b9"></path><path d="M127.7 336L114.7 440L173.3 389Z" fill="#0076c7" stroke="#0076c7"></path><path d="M0 279L127.7 336L109.7 261Z" fill="#0070c0" stroke="#0070c0"></path><path d="M0 155L0 279L93.7 179Z" fill="#00a0f1" stroke="#00a0f1"></path><path d="M217.3 0L138.7 0L214.3 66Z" fill="#0084d5" stroke="#0084d5"></path><path d="M114.7 440L142.7 540L177.3 540Z" fill="#0070c0" stroke="#0070c0"></path><path d="M93.7 179L0 279L109.7 261Z" fill="#0070c0" stroke="#0070c0"></path><path d="M114.7 440L0 540L142.7 540Z" fill="#00a7f8" stroke="#00a7f8"></path><path d="M0 155L93.7 179L0 100Z" fill="#00aeff" stroke="#00aeff"></path><path d="M0 100L93.7 179L128.7 58Z" fill="#0076c7" stroke="#0076c7"></path><path d="M0 279L0 378L127.7 336Z" fill="#0092e3" stroke="#0092e3"></path><path d="M0 0L0 100L128.7 58Z" fill="#007dce" stroke="#007dce"></path><path d="M0 378L0 472L114.7 440Z" fill="#0076c7" stroke="#0076c7"></path><path d="M138.7 0L0 0L128.7 58Z" fill="#0069b9" stroke="#0069b9"></path><path d="M0 472L0 540L114.7 440Z" fill="#00aeff" stroke="#00aeff"></path></g></svg>